<?xml version="1.0" standalone="no"?>
<!DOCTYPE svg PUBLIC "-//W3C//DTD SVG 20010904//EN"
 "http://www.w3.org/TR/2001/REC-SVG-20010904/DTD/svg10.dtd">
<svg version="1.0" xmlns="http://www.w3.org/2000/svg"
 width="512.000000pt" height="512.000000pt" viewBox="0 0 512.000000 512.000000"
 preserveAspectRatio="xMidYMid meet">

<g transform="translate(0.000000,512.000000) scale(0.100000,-0.100000)"
fill="#000000" stroke="none">
<path d="M2420 5114 c-298 -38 -551 -162 -761 -373 -188 -189 -299 -392 -355
-651 -26 -119 -26 -381 0 -500 55 -257 169 -466 355 -651 185 -186 394 -300
651 -355 119 -26 381 -26 500 0 259 56 462 167 651 355 186 185 300 394 355
651 26 119 26 381 0 500 -55 257 -169 466 -355 651 -185 185 -380 293 -631
350 -83 19 -331 33 -410 23z m371 -343 c179 -46 319 -127 449 -260 129 -130
212 -278 257 -457 24 -95 24 -333 0 -428 -46 -185 -125 -324 -262 -461 -137
-137 -276 -216 -461 -262 -98 -24 -324 -24 -424 0 -364 88 -636 359 -727 723
-24 95 -24 333 0 428 46 182 128 328 261 462 158 157 305 231 556 278 59 11
277 -3 351 -23z"/>
<path d="M2280 2219 c-494 -35 -986 -165 -1415 -374 -316 -155 -430 -240 -492
-366 -53 -108 -54 -131 -51 -781 3 -585 3 -597 24 -624 11 -15 33 -37 48 -48
l27 -21 2139 0 2139 0 27 21 c15 11 37 33 48 48 21 27 21 39 24 633 3 662 2
666 -56 782 -58 117 -180 205 -487 356 -595 290 -1290 422 -1975 374z m705
-333 c498 -61 978 -221 1363 -454 142 -86 132 -40 132 -625 l0 -487 -1920 0
-1920 0 0 487 c0 590 -12 539 144 632 403 239 908 402 1401 450 61 6 128 13
150 15 90 9 528 -4 650 -18z"/>
</g>
</svg>
