<?xml version="1.0" standalone="no"?>
<!DOCTYPE svg PUBLIC "-//W3C//DTD SVG 20010904//EN"
 "http://www.w3.org/TR/2001/REC-SVG-20010904/DTD/svg10.dtd">
<svg version="1.0" xmlns="http://www.w3.org/2000/svg"
 width="318.000000pt" height="233.000000pt" viewBox="0 0 318.000000 233.000000"
 preserveAspectRatio="xMidYMid meet">

<g transform="translate(0.000000,233.000000) scale(0.100000,-0.100000)"
fill="#000000" stroke="none">
<path d="M1168 2167 c-102 -39 -176 -106 -220 -203 -34 -74 -33 -208 3 -284
34 -73 101 -140 175 -175 116 -56 276 -33 374 52 91 80 136 182 128 293 -9
125 -78 231 -190 290 -55 30 -74 34 -148 37 -55 2 -98 -2 -122 -10z"/>
<path d="M1106 1306 c-49 -18 -102 -70 -117 -113 -16 -50 -9 -57 57 -59 58 -1
61 0 72 28 7 18 23 34 48 44 91 38 164 -40 123 -130 -15 -31 -30 -38 -103 -45
l-59 -6 -1 -48 -1 -47 48 0 c57 0 111 -21 126 -48 6 -12 11 -39 11 -62 0 -60
-33 -90 -98 -90 -54 0 -84 17 -105 60 -11 21 -20 25 -66 28 -30 2 -58 -1 -62
-5 -13 -13 9 -79 38 -113 44 -53 97 -74 188 -74 99 -1 163 26 202 85 31 46 41
121 23 173 -11 33 -53 79 -82 88 -8 3 -1 15 20 33 44 37 62 75 62 128 0 63
-36 126 -90 156 -55 31 -174 39 -234 17z"/>
<path d="M1810 1306 c-70 -15 -105 -34 -154 -83 -53 -52 -84 -125 -98 -225
-14 -104 -4 -182 30 -250 35 -68 83 -105 155 -120 69 -15 133 -1 185 39 120
92 116 307 -7 390 -50 33 -143 32 -193 -2 -20 -14 -39 -25 -42 -25 -8 0 21 76
39 104 21 32 109 76 152 76 l33 0 0 55 c0 63 -1 63 -100 41z m28 -342 c49 -34
66 -112 38 -179 -17 -41 -42 -55 -95 -55 -34 0 -44 5 -65 33 -34 44 -46 135
-22 168 33 48 101 63 144 33z"/>
<path d="M2274 1302 c-55 -26 -101 -85 -115 -146 -6 -31 -10 -117 -7 -216 3
-147 6 -170 25 -206 69 -129 236 -154 339 -50 53 52 64 92 71 242 9 202 -23
315 -103 365 -51 31 -154 37 -210 11z m123 -88 c29 -8 51 -43 59 -92 l6 -39
-90 -66 c-49 -37 -92 -67 -96 -67 -9 0 -7 127 3 180 14 68 58 100 118 84z m61
-344 c-5 -97 -18 -125 -65 -141 -59 -19 -101 17 -116 97 -6 30 -2 34 86 99
105 77 102 79 95 -55z"/>
</g>
</svg>
